<svg xmlns="http://www.w3.org/2000/svg" version="1.1" xmlns:xlink="http://www.w3.org/1999/xlink" xmlns:svgjs="http://svgjs.dev/svgjs" width="1500" height="1500" viewBox="0 0 1500 1687"><g transform="matrix(1,0,0,1,0.000011718749760802893,0)"><svg viewBox="0 0 320 360" data-background-color="#3f6a80" preserveAspectRatio="xMidYMid meet" height="1500" width="1500" xmlns="http://www.w3.org/2000/svg" xmlns:xlink="http://www.w3.org/1999/xlink"><g id="tight-bounds" transform="matrix(1,0,0,1,0.0000025000000505315256,0)"><svg viewBox="0 0 320 360" height="360" width="320"><g><svg></svg></g><g><svg viewBox="0 0 320 360" height="360" width="320"><g><path transform="translate(-19.44751,3.1739) scale(3.53591,3.53591)" d="M67.6 10.7c0.2 0 1.8 0.8 2.7 1.1-0.3 0.1-1-0.2-1.8-0.5 0.2 0 0.6 0.1 1 0.3-0.2-0.2-1.7-0.7-1.9-0.9M52.7 7.6c0.3-0.1 3.8 0.4 5.4 0.5 0.1-0.1-0.2-0.1-0.6-0.2 0.5-0.1 1.5 0.2 2.2 0.3-2.1 0.1-4.4-0.5-6.4-0.3-0.7 0-0.2-0.2-0.6-0.3M49.8 7.6c1.8 0 3.2 0 0.6 0.2-0.3-0.1-0.7-0.1-0.6-0.2M78.1 15.9c0.2 0 1 0.9 1.4 1.2-0.1 0.1-0.9-0.7-1.3-1 0.1 0.1 0 0-0.1-0.2M76.1 14.6c-0.8-0.7-1.1-0.7-1.2-1.1 0.7 0.4 1.2 0.8 1.2 1.1M63.2 8.3c0.1-0.1 0.3 0.1 0.8 0.2-0.6-0.1-0.5 0-0.3 0.2-0.7-0.1-0.9-0.2-0.7-0.4 0.4 0.2 0.5 0.1 0.2 0M34.8 9.5c0-0.1 0.4-0.3 0.7-0.4-0.3 0.2-0.2 0.3 0.3 0.1 0 0.1-0.6 0.3-1 0.5 0.2-0.1 0.4-0.4 0-0.2M65.2 7.3c-0.3 0.1-1.4-0.5-2.5-0.7-0.6-0.2 2.4 0.5 2.5 0.7M6.2 56.7c0.6 2.5 0.2 2.4 0 0M6.3 41.7c0.1-0.4 0.2-1.5 0.3-1.4-0.3 2.4-0.8 3.5-0.9 5.3 0.3-1.6-0.1 0.9-0.2 1.5 0.1 0.8 0.1-0.5 0.3-0.3 0.2 0.3-0.4 4.5-0.2 2.2-0.2 2.1 0 4.4 0.4 5-0.5 3.2 2 10.4 2.5 11.9 0.1 0.1 0-0.5 0.2-0.1 0.2 1.3 1.1 2.2 1.4 3.6 0.3 0.4 1.5 2.6 1.7 3.1 0.4 0.8 0.6 0.7 1 1.5 1.2 2.3 3.1 4.5 4.9 6.6 5.8 6.8 14.7 12.4 24.6 14.4 9.9 2.1 20.3 0.6 28.4-3.3 0.5-0.3 0.4-0.4 1-0.6 2.8-0.9 6.2-3.8 8.1-4.9 0.9-1 3.3-2.7 3.6-3.7 1.7-1.4 3.4-3.7 4.3-5.2 0.5-0.8 0.9-0.8 1.1-1.3-0.1 0 1.6-2.1 2.1-3.3-0.2 0-0.5 0.6-0.5 0 3.6-6.9 5.6-16.2 4.5-22.6 0.2 7.9-1.8 16.7-5.6 22.3-1.7 3.6-5.2 7.5-8.4 10.3-0.5 0.5-1 1.1-1.6 1.5-1.9 1.6-4 2.9-6.2 4.1-5.2 2.9-11 5.4-17.8 5.5 11.7-1 22.2-6.9 28-14.1-4.4 4.3-6.3 6-11.2 8.5-0.4 0.7-3.7 2.1-5.9 2.7 1.3-0.6 4-1.6 4.9-2.4-7.3 3.5-15.4 5.5-23 4.4 2.9 0 7 0.1 10.9-0.6 0.6-0.2 0.9-0.4 1.6-0.5 7.6-1.7 14.9-5.4 20.1-10.6-3 2.7-7.5 5.9-10.4 6.9 2.7-1.5 7.6-4.4 9.2-6.6-3.2 3.2-9.2 6.4-13 7.8-0.6 0.1 0.4-0.4-0.6 0-1.2 0.3-0.7 0.3-1 0.5-4.6 1.3-9.9 2.4-14.3 2-0.8-0.1-1.1-0.3-1.8-0.3-0.8-0.1-1.5-0.1-2.4-0.1-3.5-0.4-7.3-1.8-10.1-3-1.5-0.7-3-1.2-4.5-2.1-1.2-0.7-2.2-1.5-3.2-2.3-3.8-2.8-7-5.6-10-9.6-5.4-7.5-8.2-16.9-7.8-26.2 0.4-9.3 4.1-18.4 10-25.1-0.3 0.3 0.4-0.7 1-1.3 0 0.2-0.1 0.5 0.6-0.2 0.6-0.7-0.2-0.2 0.1-0.6 6.2-6.8 17-12.3 28.1-12.5 0.4-0.3 1.1-0.7 1.9-0.5 0 0.1-0.5 0.1-0.5 0.1 1.1-0.1 2.1-0.1 2.6 0.1 0.1-0.1-0.4-0.2 0-0.2 0.7 0.2 0.9 0 1.3 0.2-0.3 0-0.6 0-0.8 0.1 2.5 0 4.1 0.6 6.6 0.8-1.3-0.3-1.6-0.3-2.6-0.6 1.1 0.2 1.6 0.4 2.1 0.3-0.2 0-0.1-0.3 0.1-0.2 2 0.5 2.2 0.7 4.3 1.4 0.2-0.2-0.9-0.3-1.2-0.6 2 0.7 3.8 1.2 5 2-0.4-0.3-1.6-0.7-2.5-1.1-0.1 0.1 0.3 0.2 0.4 0.4-1-0.5-2.4-1-3.8-1.2 1.2 0.3 2 0.7 2.5 0.9-1.1-0.2-2.5-0.9-4.1-1.2 2.6 0.8 7.5 2.6 10.5 4.2-1.1-0.7-2.4-1.2-3.1-1.6 0.6 0.1 1.3 0.5 1.3 0.3 0.7 0.3 1.6 1 2.1 1.1-0.9-0.6-2.7-1.5-3.3-1.8 7.5 3.4 14.2 9.1 18.5 16.4 0.4 0.7 1 2.3 1.5 2.5-0.1-0.5-0.5-0.8-0.9-1.6 0.2 0 0.2-0.3 0-0.6-0.4-0.5 0 0.4-0.4-0.1-1.8-3.3-4-6.2-7.4-9.4 1.9 1.8 0.5 0.5 0.1-0.1 2.6 2.3 5.6 6.2 6.9 8.2-0.2-0.3-0.3-0.5-0.2-0.5 2.4 4.1 3.9 7.8 5.4 13.1 0.1 0.1 0-0.4 0.2-0.1 1 4.2 1.3 7.7 1.2 10.9 0.8-5.4-1-13.8-4.2-20.4-0.4-0.8-0.4-0.2-0.8-1.1 0-0.3-0.3-0.9-0.5-1.3-4-6.6-8.9-11.3-14.7-15 0.4 0.2 1.2 0.8 1.2 0.7-10.8-7.1-23.3-8.1-33.6-5.9-0.7 0.3-1 0.6-1.8 1 1.5-0.5 2.4-0.6 3.8-0.9 0.3-0.3-1.3 0.1-0.6-0.2 0.1 0.1 1.4-0.2 1.7-0.1 0 0.1-0.4 0.2-0.5 0.3 3.3-0.7 6.7-0.8 9.6-0.6-1.7 0.1-4.8-0.2-5.8 0.3 1-0.1 2.4-0.2 3.3-0.1-1.2 0-3.4 0.1-4.4 0.2-0.1-0.1 1.6-0.3 0.5-0.3-0.5 0.1-1.3 0.1-1.6 0.4-8.6 0.8-17 5.3-22.9 10.6-1.2 1-2.6 2.1-3.5 3.2-2.2 2.5-3.6 5-5.2 7.2 1-2.1 3.2-5.3 5.8-8 2.6-2.7 5.4-5 6.9-6.2 0 0.4 2.4-1.5 3.3-2.1-0.6 0.5 0.4-0.2 0.6-0.1 3.2-1.9 5.8-2.6 8.7-3.7-0.7 0.2-1.3 0.4-1.4 0.3 0.7-0.2 1.1-0.4 1-0.5-2.8 0.8-7.2 2.7-10.7 4.8 6.3-4.3 14.3-6.9 22.2-7 7.9-0.2 15.6 1.8 21.7 5 4.1 1.8 8 5.1 11.1 8.3 0.9 0.8 0.2-0.2 1.5 1.2-0.4-0.2-0.7-0.4-0.2 0.2 0.8 0.9-0.2-0.7 1.1 0.9-0.1 0-0.5-0.5-0.5-0.3 3.5 3.1 6.2 8.7 7.8 12.4-0.4-1.5-1.4-3.6-2.2-5.1 2.4 4.4 3.2 7 4.2 10.9 0.4 0.3-0.2-1.4 0.2-0.6 0.1 0.6 0.2 2.5 0.6 2.8-0.3-1.9-0.8-4.2-1.2-4.6 0.3 0.2-0.5-2.3-1-2.9-0.2-1.6-1.6-4.4-2.8-6.5-4.3-8.4-12-15.3-20.6-19.1 0-0.2-0.5-0.4-0.7-0.6-8.5-3.6-18.7-4.6-28.5-2.3-9.9 2.4-19.2 8.1-25.8 16.3 0.3-1 2.8-2.9 2.9-3.7-2.9 3.1-6 7.2-8.1 11.6-2.2 4.4-3.4 8.9-3.9 12.2" fill="#f6f6f6" fill-rule="nonzero" stroke="none" stroke-width="1" stroke-linecap="butt" stroke-linejoin="miter" stroke-miterlimit="10" stroke-dasharray="" stroke-dashoffset="0" font-family="none" font-weight="none" font-size="none" text-anchor="none" style="mix-blend-mode: normal" data-fill-palette-color="tertiary"></path></g><g transform="matrix(1,0,0,1,79.51083635754877,90)"><svg viewBox="0 0 160.97832728490246 180" height="180" width="160.97832728490246"><g><svg viewBox="0 0 178.88760000000002 200.02548506428602" height="180" width="160.97832728490246"><g><svg viewBox="0 0 178.88760000000002 200.02548506428602" height="200.02548506428602" width="178.88760000000002"><g id="textblocktransform"><svg viewBox="0 0 178.88760000000002 200.02548506428602" height="200.02548506428602" width="178.88760000000002" id="textblock"><g><svg viewBox="0 0 178.88760000000002 178.88760000000002" height="178.88760000000002" width="178.88760000000002"><g transform="matrix(1,0,0,1,57.82064124245334,67.81421225989993)"><svg viewBox="0 0 63.24631751509334 43.25917548020016" height="43.25917548020016" width="63.24631751509334"><g><svg xmlns="http://www.w3.org/2000/svg" xmlns:xlink="http://www.w3.org/1999/xlink" version="1.1" x="0" y="0" viewBox="13.572999999999999 25.084000088964324 72.85600000000005 49.83199991103567" enable-background="new 0 0 100 100" xml:space="preserve" height="43.25917548020016" width="63.24631751509334" class="icon-xg-0" data-fill-palette-color="accent" id="xg-0"><path fill="none" d="M20.836 64.754H20.81c0.011 0.041 0.025 0.081 0.025 0.126V64.754z"></path><path fill="none" d="M79.163 64.754v0.126c0-0.045 0.015-0.085 0.025-0.126H79.163z"></path><path fill="none" d="M41.715 52.703h-0.038c0.016 0.062 0.038 0.121 0.038 0.187V52.703z"></path><path fill="none" d="M80.206 64.754H80.18c0.011 0.041 0.025 0.081 0.025 0.126V64.754z"></path><path fill="none" d="M19.793 64.754v0.126c0-0.045 0.015-0.085 0.025-0.126H19.793z"></path><path fill="none" d="M40.166 52.703v0.187c0-0.066 0.022-0.126 0.038-0.187H40.166z"></path><rect x="58.961" y="49.067" fill="#f6f6f6" width="0" height="0.366" data-fill-palette-color="accent"></rect><path fill="#f6f6f6" d="M58.959 34.193h-3.55c-0.076 0-0.148 0.011-0.222 0.017-0.405 0.008-1.401 0.15-2.493 1.199-1.173 1.128-2.072 2.944-2.7 5.415-0.628-2.464-1.525-4.276-2.696-5.402-1.208-1.162-2.301-1.217-2.608-1.199-0.006 0-0.011 0.004-0.017 0.004-0.07-0.008-0.139-0.021-0.211-0.021h-7.043c-0.071 0-0.138 0.013-0.207 0.021-0.005 0-0.01-0.004-0.015-0.004-0.307-0.017-1.4 0.038-2.609 1.199-2.504 2.408-3.774 7.91-3.774 16.355 0 0.23 0.062 0.441 0.155 0.636-5.02 1.839-6.88 1.022-7.181 0.491-0.149-0.343-0.486-0.549-0.843-0.552-0.086-0.019-0.166-0.052-0.258-0.052h-4.742c-0.184 0-0.354 0.046-0.51 0.118-0.357 0.065-0.928 0.261-1.525 0.838-1.55 1.5-2.337 4.619-2.337 9.271 0 0.512 0.414 0.927 0.927 0.927s0.927-0.415 0.927-0.927c0-4.059 0.643-6.231 1.29-7.32v9.335 0.211 8.61c0 0.85 0.689 1.539 1.539 1.539 0.85 0 1.539-0.689 1.539-1.539v-7.441V64.88v-0.126h0.025c0.058-0.225 0.253-0.395 0.496-0.395s0.438 0.17 0.496 0.395h0.025v0.126 1.042 7.441c0 0.85 0.689 1.539 1.539 1.539 0.85 0 1.539-0.689 1.539-1.539v-8.61-0.211-9.448c0.573 0.197 1.215 0.318 1.965 0.318 1.862 0 4.264-0.608 7.176-1.821 0.43-0.179 0.637-0.644 0.525-1.082 0.127-0.22 0.22-0.461 0.22-0.732 0-7.025 0.912-10.664 1.796-12.558V52.39v0.313V72.63c0 1.262 1.023 2.286 2.286 2.286 1.262 0 2.286-1.023 2.286-2.286v-18.19-1.548-0.187h0.038c0.086-0.334 0.375-0.587 0.736-0.587s0.651 0.252 0.736 0.587h0.038v0.187 1.548 18.19c0 1.262 1.023 2.286 2.286 2.286 1.262 0 2.286-1.023 2.286-2.286V52.703v-0.176V39.207c0.884 1.891 1.8 5.531 1.8 12.57 0 0.824 0.669 1.492 1.493 1.492 0.159 0 0.304-0.044 0.448-0.09 0.126 0.034 0.248 0.078 0.385 0.078 0.824 0 1.493-0.668 1.493-1.492 0-7.735 1.105-11.371 2.06-13.082 0.283 1.633 0.569 3.597 0.588 4.947 0.033 2.316-0.827 3.613-1.08 5.804h-0.011l-0.974 7.487H53.7v15.697c0 1.262 1.023 2.286 2.286 2.286 1.262 0 2.286-1.023 2.286-2.286V56.92h1.548v15.697c0 1.262 1.023 2.286 2.286 2.286 1.262 0 2.286-1.023 2.286-2.286V56.92h1.043l-0.974-7.487h-0.009c-0.254-2.191-1.113-3.488-1.08-5.804 0.02-1.42 0.335-3.516 0.631-5.194 0.947 1.566 2.19 5.169 2.19 13.329 0 0.277 0.096 0.522 0.227 0.744-0.113 0.439 0.094 0.904 0.525 1.084 2.912 1.213 5.314 1.821 7.176 1.821 0.75 0 1.392-0.121 1.965-0.318v9.448 0.211 8.61c0 0.85 0.689 1.539 1.539 1.539 0.85 0 1.539-0.689 1.539-1.539v-7.441V64.88v-0.126h0.025c0.058-0.225 0.253-0.395 0.496-0.395h0c0.243 0 0.438 0.17 0.496 0.395h0.025v0.126 1.042 7.441c0 0.85 0.689 1.539 1.539 1.539 0.85 0 1.539-0.689 1.539-1.539v-8.61-0.211-9.334c0.647 1.089 1.291 3.26 1.291 7.319 0 0.512 0.414 0.927 0.927 0.927s0.927-0.415 0.927-0.927c0-4.651-0.786-7.77-2.338-9.271-0.596-0.576-1.164-0.771-1.522-0.836-0.157-0.073-0.328-0.12-0.513-0.12h-4.742c-0.062 0-0.115 0.026-0.175 0.035-0.395-0.035-0.775 0.169-0.923 0.561-0.288 0.532-2.147 1.366-7.198-0.488 0.096-0.197 0.16-0.411 0.16-0.644 0-8.445-1.27-13.947-3.774-16.355-1.209-1.162-2.297-1.214-2.609-1.199-0.005 0-0.009 0.003-0.014 0.003-0.088-0.009-0.175-0.02-0.266-0.02h-3.55" data-fill-palette-color="accent"></path><path fill="#f6f6f6" d="M86.385 51.201c-1.175-0.034-2.396-4.547-2.396-4.547l-0.008 0.011c-0.168-0.473-0.608-0.815-1.139-0.815-0.459 0-0.845 0.264-1.053 0.639-0.55-0.519-1.288-0.843-2.105-0.843-0.817 0-1.554 0.324-2.105 0.843-0.208-0.375-0.594-0.639-1.053-0.639-0.53 0-0.971 0.343-1.139 0.815l-0.008-0.011c0 0-1.221 4.513-2.396 4.547 2.453 0.599 3.029-1.978 3.543-2.91 0.046 0 0.085-0.021 0.129-0.026-0.022 0.15-0.046 0.299-0.046 0.455 0 1.698 1.376 3.074 3.074 3.074 1.698 0 3.074-1.376 3.074-3.074 0-0.156-0.024-0.305-0.046-0.455 0.045 0.005 0.084 0.026 0.129 0.026C83.356 49.223 83.933 51.8 86.385 51.201z" data-fill-palette-color="accent"></path><circle fill="#f6f6f6" cx="20.315" cy="48.719" r="3.1" data-fill-palette-color="accent"></circle><circle fill="#f6f6f6" cx="40.953" cy="28.874" r="3.8" data-fill-palette-color="accent"></circle><path fill="#f6f6f6" d="M62.835 28.641l-0.021 0.023c-0.111-1.993-1.748-3.579-3.768-3.579-2.021 0-3.657 1.586-3.768 3.579l-0.021-0.023c0 0-0.253 3.061-1.127 3.214-0.875 0.153 3.799 0.83 4.917 0.809 0.001 0 0.002 0 0.003 0 1.121 0.021 5.788-0.656 4.914-0.809C63.088 31.702 62.835 28.641 62.835 28.641z" data-fill-palette-color="accent"></path></svg></g></svg></g><g><path d="M17.933 66.02l-0.785 2.179-17.148-6.179 0.785-2.179 9.477 3.414-6.316-12.277 0.844-2.343 5.092 9.624 12.227-3.828-0.882 2.448-10.534 3.223 1.988 4.025z" fill="#f6f6f6" data-fill-palette-color="primary"></path><path d="M29.859 42.624l-1.315 1.845-10.927-7.791 1.315-1.845zM16.88 33.37l-1.316 1.844-2.302-1.641 1.316-1.845z" fill="#f6f6f6" data-fill-palette-color="primary"></path><path d="M43.348 19.154l5.026 6.252-1.758 1.413-4.706-5.854c-0.891-1.108-1.716-1.781-2.474-2.018-0.753-0.242-1.477-0.083-2.171 0.475v0c-0.483 0.388-0.862 0.894-1.138 1.517-0.285 0.622-0.447 1.285-0.484 1.987-0.038 0.702 0.077 1.383 0.344 2.041v0l5.078 6.316-1.766 1.419-8.409-10.459 1.599-1.285 1.803 2.243c-0.115-0.719-0.095-1.438 0.06-2.157 0.15-0.714 0.423-1.396 0.817-2.045 0.4-0.653 0.908-1.227 1.523-1.722v0c0.604-0.486 1.198-0.78 1.78-0.881 0.583-0.111 1.151-0.061 1.704 0.149 0.549 0.205 1.089 0.534 1.62 0.989 0.527 0.449 1.044 0.989 1.552 1.62z" fill="#f6f6f6" data-fill-palette-color="primary"></path><path d="M65.8 17.784v0c-0.957 0.334-1.888 0.465-2.792 0.392-0.905-0.073-1.753-0.314-2.544-0.723-0.783-0.404-1.47-0.95-2.063-1.636-0.591-0.68-1.042-1.467-1.354-2.359v0c-0.417-1.195-0.526-2.382-0.325-3.562 0.209-1.176 0.697-2.236 1.462-3.181 0.774-0.941 1.791-1.631 3.05-2.07v0c1.278-0.446 2.499-0.53 3.663-0.252 1.155 0.274 2.168 0.811 3.037 1.609 0.868 0.792 1.499 1.754 1.894 2.884v0c0.058 0.167 0.11 0.326 0.155 0.476 0.047 0.156 0.076 0.28 0.086 0.37v0l-10.512 3.671c0.351 0.8 0.838 1.451 1.461 1.954 0.623 0.503 1.311 0.825 2.067 0.965 0.757 0.146 1.499 0.093 2.224-0.161v0c0.777-0.271 1.441-0.723 1.992-1.355 0.559-0.628 0.857-1.301 0.894-2.02v0l2.019-0.132c-0.057 0.704-0.273 1.396-0.648 2.075-0.369 0.677-0.876 1.279-1.521 1.806-0.642 0.534-1.391 0.95-2.245 1.249zM58.962 11.946v0l8.643-3.018c-0.351-0.8-0.839-1.444-1.464-1.932-0.627-0.495-1.317-0.809-2.07-0.942-0.755-0.14-1.515-0.076-2.279 0.19v0c-0.739 0.258-1.363 0.678-1.873 1.26-0.506 0.573-0.847 1.247-1.024 2.022-0.172 0.766-0.15 1.573 0.067 2.42z" fill="#f6f6f6" data-fill-palette-color="primary"></path><path d="M90.02 13.919v0c-1.007 0.006-1.923-0.172-2.748-0.534-0.825-0.362-1.54-0.865-2.143-1.508-0.609-0.636-1.077-1.375-1.401-2.216-0.332-0.835-0.5-1.715-0.506-2.64v0c-0.006-0.946 0.152-1.838 0.474-2.677 0.315-0.846 0.773-1.59 1.374-2.233 0.595-0.65 1.306-1.161 2.134-1.534 0.828-0.372 1.749-0.562 2.762-0.568v0c0.993-0.006 1.903 0.172 2.728 0.535 0.825 0.362 1.543 0.865 2.153 1.507 0.616 0.636 1.09 1.375 1.422 2.216 0.332 0.835 0.5 1.725 0.506 2.671v0c0.006 0.925-0.152 1.807-0.474 2.646-0.321 0.846-0.78 1.59-1.374 2.234-0.602 0.65-1.316 1.161-2.144 1.533-0.828 0.372-1.749 0.562-2.763 0.568zM85.529 7.027v0c0.006 0.925 0.215 1.764 0.627 2.517 0.406 0.753 0.944 1.345 1.613 1.776 0.669 0.438 1.416 0.655 2.239 0.65v0c0.823-0.005 1.574-0.234 2.252-0.687 0.671-0.446 1.208-1.052 1.611-1.816 0.397-0.771 0.592-1.62 0.587-2.545v0c-0.006-0.925-0.211-1.764-0.617-2.517-0.413-0.746-0.957-1.341-1.634-1.787-0.683-0.438-1.436-0.655-2.259-0.649v0c-0.823 0.005-1.567 0.234-2.231 0.687-0.664 0.46-1.194 1.069-1.592 1.826-0.404 0.758-0.603 1.606-0.596 2.545z" fill="#f6f6f6" data-fill-palette-color="primary"></path><path d="M113.395 17.704v0c-1.063-0.341-2.001-0.834-2.816-1.481-0.821-0.649-1.453-1.43-1.895-2.344v0l1.315-1.261c0.518 0.924 1.097 1.648 1.736 2.175 0.637 0.533 1.34 0.923 2.111 1.169v0c0.881 0.282 1.654 0.345 2.319 0.187 0.657-0.154 1.09-0.558 1.3-1.213v0c0.152-0.473 0.122-0.872-0.088-1.196-0.212-0.318-0.556-0.639-1.031-0.963-0.468-0.322-1.031-0.695-1.688-1.12v0c-0.798-0.542-1.451-1.058-1.958-1.549-0.516-0.487-0.855-0.999-1.018-1.537-0.17-0.54-0.148-1.144 0.066-1.812v0c0.262-0.816 0.693-1.439 1.296-1.867 0.608-0.427 1.33-0.671 2.163-0.732 0.839-0.053 1.731 0.073 2.677 0.376v0c0.946 0.303 1.758 0.724 2.435 1.263 0.669 0.543 1.191 1.189 1.565 1.937v0l-1.461 1.182c-0.337-0.687-0.766-1.253-1.288-1.699-0.528-0.448-1.168-0.792-1.919-1.033v0c-0.441-0.141-0.888-0.228-1.343-0.259-0.463-0.027-0.873 0.049-1.23 0.228-0.366 0.183-0.627 0.517-0.782 1.003v0c-0.131 0.408-0.125 0.767 0.019 1.077 0.143 0.31 0.406 0.616 0.788 0.918 0.376 0.299 0.843 0.645 1.403 1.039v0c0.876 0.588 1.623 1.135 2.239 1.639 0.623 0.507 1.059 1.043 1.307 1.609 0.254 0.567 0.255 1.243 0.004 2.027v0c-0.386 1.205-1.145 2.001-2.277 2.388-1.13 0.381-2.446 0.331-3.949-0.151z" fill="#f6f6f6" data-fill-palette-color="primary"></path><path d="M136.38 26.54l-0.552 1.793c-0.207-0.033-0.482-0.082-0.823-0.147-0.347-0.069-0.729-0.178-1.145-0.326-0.413-0.154-0.82-0.366-1.221-0.635v0c-0.452-0.303-0.815-0.666-1.09-1.087-0.274-0.422-0.41-0.885-0.406-1.391 0.009-0.502 0.19-1.016 0.542-1.541v0l5.026-7.492-1.517-1.018 0.989-1.474 1.517 1.017 2.496-3.72 1.881 1.262-2.496 3.72 2.492 1.672-0.989 1.475-2.492-1.672-4.639 6.916c-0.241 0.42-0.307 0.806-0.199 1.157 0.114 0.355 0.335 0.643 0.663 0.862v0c0.373 0.25 0.758 0.414 1.156 0.493 0.404 0.082 0.672 0.127 0.807 0.136z" fill="#f6f6f6" data-fill-palette-color="primary"></path><path d="M147.791 41.698v0c-0.648-0.78-1.096-1.606-1.344-2.479-0.248-0.873-0.319-1.752-0.214-2.636 0.105-0.874 0.375-1.71 0.81-2.505 0.43-0.791 1.009-1.489 1.737-2.094v0c0.973-0.809 2.047-1.326 3.223-1.551 1.175-0.215 2.338-0.13 3.491 0.257 1.152 0.396 2.154 1.107 3.007 2.132v0c0.866 1.041 1.372 2.156 1.518 3.343 0.148 1.178-0.001 2.314-0.444 3.409-0.439 1.09-1.118 2.018-2.04 2.783v0c-0.136 0.113-0.266 0.217-0.391 0.312-0.13 0.099-0.235 0.169-0.316 0.21v0l-7.118-8.562c-0.626 0.609-1.066 1.293-1.319 2.052-0.254 0.759-0.314 1.517-0.181 2.274 0.128 0.761 0.438 1.437 0.929 2.027v0c0.526 0.633 1.182 1.097 1.967 1.392 0.784 0.304 1.519 0.348 2.205 0.13v0l0.83 1.845c-0.68 0.193-1.403 0.233-2.17 0.119-0.763-0.109-1.504-0.373-2.225-0.792-0.725-0.415-1.377-0.97-1.955-1.666zM150.867 33.249v0l5.852 7.04c0.626-0.609 1.059-1.291 1.297-2.048 0.244-0.76 0.297-1.516 0.158-2.268-0.133-0.756-0.459-1.446-0.976-2.068v0c-0.5-0.602-1.112-1.04-1.836-1.314-0.714-0.274-1.465-0.357-2.252-0.251-0.778 0.107-1.526 0.41-2.243 0.909z" fill="#f6f6f6" data-fill-palette-color="primary"></path><path d="M159.895 63.033v0c-0.358-0.941-0.513-1.862-0.463-2.762 0.05-0.9 0.271-1.745 0.662-2.534 0.382-0.794 0.91-1.49 1.585-2.089 0.666-0.603 1.431-1.069 2.296-1.399v0c0.884-0.337 1.775-0.501 2.673-0.494 0.902-0.002 1.76 0.167 2.573 0.505 0.817 0.329 1.545 0.817 2.184 1.461 0.639 0.645 1.139 1.441 1.5 2.389v0c0.354 0.928 0.505 1.842 0.455 2.742-0.05 0.9-0.27 1.748-0.659 2.544-0.38 0.8-0.906 1.503-1.577 2.108-0.666 0.603-1.441 1.073-2.325 1.41v0c-0.865 0.329-1.746 0.49-2.644 0.483-0.905-0.005-1.762-0.173-2.573-0.505-0.82-0.336-1.549-0.826-2.188-1.471-0.639-0.645-1.139-1.441-1.499-2.388zM164.777 56.411v0c-0.865 0.329-1.577 0.819-2.138 1.47-0.563 0.644-0.929 1.355-1.099 2.133-0.176 0.781-0.117 1.555 0.176 2.325v0c0.293 0.769 0.771 1.392 1.433 1.868 0.653 0.472 1.408 0.763 2.265 0.873 0.861 0.101 1.724-0.013 2.589-0.342v0c0.865-0.329 1.578-0.816 2.142-1.46 0.554-0.648 0.921-1.367 1.101-2.156 0.171-0.793 0.11-1.575-0.183-2.343v0c-0.293-0.769-0.768-1.386-1.426-1.849-0.663-0.461-1.419-0.744-2.268-0.851-0.851-0.113-1.715-0.002-2.592 0.332z" fill="#f6f6f6" data-fill-palette-color="primary"></path><path d="M5.187 117.404l-0.812-2.235 17.612-6.395 0.812 2.235-9.737 3.535 13.068 5.548 0.878 2.417-10.354-4.263-7.144 11.063-0.913-2.513 6.202-9.473-4.221-1.876z" fill="#f6f6f6" data-fill-palette-color="primary"></path><path d="M18.876 144.093l-1.352-1.893 11.227-8.021 1.353 1.894zM32.213 134.566l-1.353-1.894 2.367-1.69 1.353 1.893z" fill="#f6f6f6" data-fill-palette-color="primary"></path><path d="M45.149 157.558l-5.17 6.424-1.813-1.459 4.838-6.011c0.917-1.14 1.414-2.115 1.491-2.926 0.077-0.812-0.24-1.503-0.95-2.075v0c-0.498-0.401-1.091-0.673-1.78-0.817-0.688-0.143-1.389-0.157-2.102-0.041-0.709 0.111-1.368 0.375-1.975 0.794v0l-5.222 6.487-1.813-1.459 8.652-10.748 1.646 1.324-1.856 2.306c0.701-0.274 1.426-0.415 2.175-0.424 0.749-0.008 1.496 0.117 2.24 0.375 0.74 0.264 1.425 0.649 2.056 1.157v0c0.62 0.499 1.05 1.029 1.289 1.588 0.235 0.565 0.308 1.147 0.218 1.747-0.086 0.595-0.297 1.21-0.635 1.847-0.339 0.627-0.768 1.264-1.289 1.911z" fill="#f6f6f6" data-fill-palette-color="primary"></path><path d="M61.153 174.226v0c-0.983-0.343-1.813-0.835-2.489-1.475-0.686-0.636-1.214-1.372-1.586-2.208-0.373-0.829-0.578-1.708-0.614-2.636-0.043-0.93 0.095-1.851 0.414-2.763v0c0.431-1.233 1.106-2.259 2.026-3.076 0.92-0.817 1.992-1.358 3.216-1.623 1.222-0.258 2.481-0.16 3.778 0.294v0c1.31 0.458 2.345 1.169 3.104 2.133 0.752 0.962 1.225 2.042 1.418 3.241 0.189 1.19 0.08 2.37-0.328 3.539v0c-0.058 0.167-0.118 0.326-0.178 0.479-0.069 0.156-0.124 0.274-0.167 0.352v0l-10.809-3.777c-0.232 0.87-0.257 1.705-0.075 2.504 0.176 0.797 0.522 1.498 1.038 2.103 0.519 0.599 1.154 1.03 1.905 1.293v0c0.796 0.278 1.618 0.342 2.463 0.19 0.846-0.151 1.517-0.504 2.013-1.059v0l1.717 1.184c-0.503 0.531-1.121 0.949-1.855 1.255-0.734 0.306-1.529 0.468-2.386 0.485-0.85 0.02-1.719-0.125-2.605-0.435zM59.392 165.157v0l8.883 3.104c0.232-0.87 0.253-1.703 0.062-2.497-0.184-0.792-0.537-1.485-1.058-2.078-0.521-0.593-1.173-1.026-1.956-1.3v0c-0.764-0.267-1.535-0.331-2.312-0.191-0.777 0.139-1.484 0.462-2.121 0.966-0.631 0.507-1.13 1.173-1.498 1.996z" fill="#f6f6f6" data-fill-palette-color="primary"></path><path d="M89.944 178.878v0c-1.034-0.006-1.975-0.203-2.823-0.589-0.841-0.379-1.569-0.905-2.185-1.575-0.608-0.664-1.08-1.429-1.414-2.295-0.328-0.866-0.489-1.772-0.483-2.718v0c0.006-0.973 0.179-1.89 0.517-2.752 0.346-0.862 0.827-1.621 1.443-2.277 0.623-0.656 1.365-1.172 2.225-1.548 0.853-0.369 1.8-0.55 2.84-0.543v0c1.021 0.006 1.955 0.199 2.803 0.579 0.841 0.386 1.573 0.911 2.195 1.575 0.622 0.664 1.097 1.429 1.425 2.295 0.328 0.866 0.489 1.786 0.482 2.759v0c-0.006 0.946-0.178 1.85-0.517 2.711-0.339 0.862-0.82 1.621-1.443 2.277-0.617 0.663-1.355 1.179-2.214 1.548-0.86 0.376-1.81 0.56-2.851 0.553zM85.417 171.737v0c-0.006 0.953 0.196 1.818 0.606 2.596 0.41 0.778 0.957 1.394 1.642 1.847 0.684 0.453 1.448 0.683 2.292 0.688v0c0.85 0.005 1.624-0.218 2.321-0.669 0.697-0.458 1.255-1.077 1.675-1.857 0.42-0.78 0.633-1.646 0.639-2.599v0c0.006-0.953-0.196-1.818-0.607-2.596-0.41-0.778-0.961-1.397-1.652-1.858-0.691-0.467-1.462-0.703-2.312-0.708v0c-0.844-0.005-1.611 0.225-2.3 0.69-0.69 0.465-1.245 1.084-1.665 1.857-0.42 0.773-0.633 1.643-0.639 2.609z" fill="#f6f6f6" data-fill-palette-color="primary"></path><path d="M117.692 174.43v0c-1.095 0.35-2.177 0.497-3.246 0.439-1.073-0.05-2.069-0.327-2.988-0.833v0l0.358-1.829c0.976 0.459 1.891 0.72 2.746 0.781 0.849 0.064 1.669-0.03 2.46-0.283v0c0.907-0.29 1.59-0.702 2.048-1.234 0.46-0.526 0.584-1.123 0.37-1.79v0c-0.156-0.486-0.417-0.802-0.785-0.949-0.366-0.14-0.843-0.202-1.431-0.185-0.59 0.01-1.286 0.033-2.089 0.069v0c-0.994 0.018-1.85-0.022-2.568-0.122-0.72-0.105-1.311-0.334-1.773-0.686-0.463-0.352-0.804-0.871-1.024-1.558v0c-0.268-0.836-0.277-1.615-0.03-2.337 0.256-0.718 0.714-1.35 1.375-1.898 0.669-0.543 1.49-0.97 2.462-1.28v0c0.978-0.313 1.907-0.446 2.787-0.399 0.888 0.052 1.712 0.281 2.47 0.688v0l-0.509 1.856c-0.697-0.37-1.398-0.585-2.103-0.645-0.701-0.069-1.44 0.021-2.218 0.27v0c-0.447 0.143-0.873 0.34-1.278 0.592-0.399 0.249-0.696 0.559-0.893 0.928-0.196 0.37-0.214 0.804-0.054 1.303v0c0.135 0.421 0.355 0.719 0.661 0.893 0.304 0.167 0.703 0.265 1.197 0.292 0.501 0.025 1.101 0.037 1.8 0.034v0c1.083-0.032 2.036-0.023 2.859 0.028 0.823 0.051 1.509 0.239 2.056 0.564 0.547 0.325 0.949 0.889 1.206 1.693v0c0.398 1.244 0.238 2.363-0.479 3.357-0.716 1.001-1.845 1.748-3.387 2.241z" fill="#f6f6f6" data-fill-palette-color="primary"></path><path d="M141.139 159.308l1.49 1.238c-0.109 0.179-0.265 0.418-0.466 0.717-0.203 0.308-0.456 0.628-0.758 0.96-0.311 0.331-0.673 0.634-1.086 0.91v0c-0.47 0.314-0.959 0.518-1.468 0.613-0.5 0.097-0.99 0.043-1.469-0.16-0.47-0.201-0.887-0.574-1.25-1.117v0l-5.153-7.714-1.562 1.043-1.014-1.519 1.561-1.043-2.557-3.827 1.935-1.293 2.557 3.828 2.571-1.718 1.015 1.519-2.571 1.718 4.756 7.119c0.3 0.388 0.641 0.599 1.023 0.631 0.381 0.032 0.739-0.064 1.072-0.287v0c0.385-0.257 0.695-0.558 0.931-0.904 0.236-0.346 0.383-0.583 0.443-0.714z" fill="#f6f6f6" data-fill-palette-color="primary"></path><path d="M158.49 146.198v0c-0.668 0.799-1.421 1.402-2.259 1.809-0.837 0.418-1.712 0.652-2.625 0.705-0.908 0.057-1.802-0.062-2.683-0.355-0.885-0.288-1.699-0.742-2.44-1.362v0c-1.002-0.838-1.723-1.832-2.163-2.981-0.44-1.149-0.569-2.343-0.385-3.581 0.19-1.234 0.725-2.378 1.607-3.432v0c0.89-1.065 1.921-1.782 3.09-2.152 1.165-0.365 2.343-0.426 3.534-0.184 1.181 0.243 2.246 0.761 3.196 1.555v0c0.136 0.113 0.264 0.225 0.385 0.335 0.122 0.12 0.212 0.213 0.271 0.281v0l-7.346 8.783c0.733 0.524 1.505 0.842 2.316 0.953 0.807 0.116 1.585 0.04 2.334-0.23 0.744-0.274 1.371-0.716 1.882-1.327v0c0.541-0.647 0.89-1.393 1.047-2.238 0.157-0.845 0.063-1.597-0.281-2.257v0l1.712-1.188c0.319 0.657 0.493 1.383 0.52 2.178 0.027 0.795-0.102 1.596-0.387 2.403-0.281 0.803-0.723 1.564-1.325 2.285zM149.383 144.647v0l6.036-7.218c-0.733-0.524-1.504-0.837-2.315-0.938-0.806-0.107-1.579-0.021-2.317 0.257-0.738 0.278-1.374 0.736-1.906 1.373v0c-0.519 0.621-0.851 1.32-0.995 2.095-0.143 0.776-0.091 1.551 0.157 2.326 0.252 0.77 0.699 1.471 1.34 2.105z" fill="#f6f6f6" data-fill-palette-color="primary"></path><path d="M173.001 120.902v0c-0.371 0.965-0.887 1.777-1.548 2.434-0.652 0.653-1.4 1.149-2.244 1.487-0.836 0.335-1.718 0.506-2.647 0.514-0.926 0.001-1.831-0.168-2.713-0.507v0c-0.908-0.349-1.706-0.834-2.393-1.456-0.684-0.628-1.225-1.346-1.621-2.154-0.394-0.815-0.615-1.691-0.663-2.627-0.044-0.928 0.121-1.878 0.494-2.85v0c0.366-0.953 0.876-1.759 1.531-2.418 0.658-0.651 1.408-1.15 2.249-1.497 0.841-0.347 1.724-0.522 2.65-0.523 0.926-0.001 1.843 0.173 2.751 0.521v0c0.883 0.339 1.668 0.82 2.355 1.441 0.687 0.621 1.227 1.339 1.621 2.154 0.403 0.811 0.625 1.683 0.666 2.618 0.048 0.937-0.115 1.891-0.488 2.863zM164.721 122.617v0c0.889 0.342 1.77 0.458 2.643 0.349 0.873-0.109 1.642-0.404 2.308-0.884 0.666-0.48 1.15-1.114 1.453-1.901v0c0.305-0.794 0.369-1.596 0.192-2.408-0.183-0.814-0.565-1.555-1.146-2.223-0.581-0.668-1.317-1.173-2.206-1.515v0c-0.889-0.342-1.77-0.458-2.643-0.349-0.873 0.109-1.647 0.406-2.321 0.89-0.681 0.482-1.174 1.12-1.479 1.913v0c-0.303 0.787-0.358 1.586-0.166 2.396 0.192 0.81 0.575 1.548 1.15 2.214 0.575 0.666 1.313 1.172 2.215 1.518z" fill="#f6f6f6" data-fill-palette-color="primary"></path><path d="M0.237 89.341c0-3.96 3.21-7.169 7.169-7.169 3.96 0 7.169 3.21 7.17 7.169 0 3.96-3.21 7.169-7.17 7.17-3.96 0-7.169-3.21-7.169-7.17z" fill="#f6f6f6" data-fill-palette-color="primary"></path><path d="M164.549 89.341c0-3.96 3.21-7.169 7.169-7.169 3.96 0 7.169 3.21 7.17 7.169 0 3.96-3.21 7.169-7.17 7.17-3.96 0-7.169-3.21-7.169-7.17z" fill="#f6f6f6" data-fill-palette-color="primary"></path></g></svg></g><g transform="matrix(1,0,0,1,24.149826000000004,190.57398)"><svg viewBox="0 0 130.587948 9.451505064286001" height="9.451505064286001" width="130.587948"><g transform="matrix(1,0,0,1,0,0)"><svg width="130.587948" viewBox="4.85 -36.83 627.2099999999999 45.41" height="9.451505064286001" data-palette-color="#f6f6f6"><path d="M9.68-35.83L9.68-20.13 11.5-20.13Q12.45-20.13 13.01-20.36 13.58-20.6 14.08-21.18L14.08-21.18 26-34.68Q26.55-35.3 27.06-35.56 27.58-35.83 28.38-35.83L28.38-35.83 32.5-35.83 18.85-20.4Q18.32-19.83 17.86-19.43 17.4-19.03 16.88-18.78L16.88-18.78Q17.57-18.55 18.1-18.1 18.63-17.65 19.2-16.98L19.2-16.98 33.45 0 29.25 0Q28.78 0 28.45-0.08 28.13-0.15 27.89-0.28 27.65-0.4 27.45-0.6 27.25-0.8 27.05-1.03L27.05-1.03 14.68-15.25Q14.4-15.55 14.16-15.76 13.93-15.98 13.61-16.13 13.3-16.28 12.89-16.34 12.48-16.4 11.88-16.4L11.88-16.4 9.68-16.4 9.68 0 4.85 0 4.85-35.83 9.68-35.83ZM38.2-25.33L42.65-25.33 42.65 0 38.2 0 38.2-25.33ZM43.65-33.27L43.65-33.27Q43.65-32.63 43.39-32.06 43.12-31.5 42.69-31.06 42.25-30.63 41.67-30.38 41.1-30.13 40.45-30.13L40.45-30.13Q39.8-30.13 39.24-30.38 38.67-30.63 38.24-31.06 37.8-31.5 37.55-32.06 37.3-32.63 37.3-33.27L37.3-33.27Q37.3-33.93 37.55-34.51 37.8-35.1 38.24-35.54 38.67-35.98 39.24-36.23 39.8-36.48 40.45-36.48L40.45-36.48Q41.1-36.48 41.67-36.23 42.25-35.98 42.69-35.54 43.12-35.1 43.39-34.51 43.65-33.93 43.65-33.27ZM54.95 0L50.5 0 50.5-25.33 53.15-25.33Q54.1-25.33 54.35-24.4L54.35-24.4 54.7-21.65Q56.35-23.48 58.38-24.6 60.42-25.73 63.1-25.73L63.1-25.73Q65.17-25.73 66.76-25.04 68.35-24.35 69.41-23.09 70.47-21.83 71.02-20.05 71.57-18.28 71.57-16.13L71.57-16.13 71.57 0 67.12 0 67.12-16.13Q67.12-19 65.81-20.59 64.5-22.18 61.8-22.18L61.8-22.18Q59.82-22.18 58.11-21.23 56.4-20.28 54.95-18.65L54.95-18.65 54.95 0ZM88.32-25.73L88.32-25.73Q90.59-25.73 92.52-24.96 94.44-24.2 95.84-22.76 97.24-21.33 98.03-19.21 98.82-17.1 98.82-14.4L98.82-14.4Q98.82-13.35 98.59-13 98.37-12.65 97.74-12.65L97.74-12.65 80.89-12.65Q80.94-10.25 81.54-8.47 82.14-6.7 83.19-5.51 84.24-4.33 85.69-3.74 87.14-3.15 88.94-3.15L88.94-3.15Q90.62-3.15 91.83-3.54 93.04-3.93 93.92-4.38 94.79-4.83 95.38-5.21 95.97-5.6 96.39-5.6L96.39-5.6Q96.94-5.6 97.24-5.18L97.24-5.18 98.49-3.55Q97.67-2.55 96.52-1.81 95.37-1.07 94.06-0.6 92.74-0.13 91.34 0.11 89.94 0.35 88.57 0.35L88.57 0.35Q85.94 0.35 83.73-0.54 81.52-1.43 79.91-3.14 78.29-4.85 77.39-7.38 76.49-9.9 76.49-13.18L76.49-13.18Q76.49-15.83 77.31-18.13 78.12-20.43 79.64-22.11 81.17-23.8 83.37-24.76 85.57-25.73 88.32-25.73ZM88.42-22.45L88.42-22.45Q85.19-22.45 83.34-20.59 81.49-18.73 81.04-15.43L81.04-15.43 94.82-15.43Q94.82-16.98 94.39-18.26 93.97-19.55 93.14-20.49 92.32-21.43 91.13-21.94 89.94-22.45 88.42-22.45ZM119.99-22.78L118.99-21.15Q118.69-20.6 118.07-20.6L118.07-20.6Q117.69-20.6 117.22-20.88 116.74-21.15 116.05-21.49 115.37-21.83 114.42-22.11 113.47-22.4 112.17-22.4L112.17-22.4Q111.04-22.4 110.14-22.11 109.24-21.83 108.6-21.33 107.97-20.83 107.63-20.16 107.29-19.5 107.29-18.73L107.29-18.73Q107.29-17.75 107.85-17.1 108.42-16.45 109.34-15.98 110.27-15.5 111.44-15.14 112.62-14.78 113.85-14.36 115.09-13.95 116.27-13.45 117.44-12.95 118.37-12.2 119.29-11.45 119.85-10.36 120.42-9.28 120.42-7.75L120.42-7.75Q120.42-6 119.79-4.51 119.17-3.03 117.94-1.94 116.72-0.85 114.94-0.23 113.17 0.4 110.84 0.4L110.84 0.4Q108.19 0.4 106.04-0.46 103.89-1.33 102.39-2.68L102.39-2.68 103.44-4.38Q103.64-4.7 103.92-4.88 104.19-5.05 104.64-5.05L104.64-5.05Q105.09-5.05 105.59-4.7 106.09-4.35 106.8-3.93 107.52-3.5 108.53-3.15 109.54-2.8 111.07-2.8L111.07-2.8Q112.37-2.8 113.34-3.14 114.32-3.48 114.97-4.05 115.62-4.63 115.93-5.38 116.24-6.13 116.24-6.98L116.24-6.98Q116.24-8.03 115.68-8.71 115.12-9.4 114.19-9.89 113.27-10.38 112.08-10.74 110.89-11.1 109.65-11.5 108.42-11.9 107.23-12.41 106.04-12.93 105.12-13.7 104.19-14.48 103.63-15.61 103.07-16.75 103.07-18.38L103.07-18.38Q103.07-19.83 103.67-21.16 104.27-22.5 105.42-23.51 106.57-24.53 108.24-25.13 109.92-25.73 112.07-25.73L112.07-25.73Q114.57-25.73 116.55-24.94 118.54-24.15 119.99-22.78L119.99-22.78ZM126.69-25.33L131.14-25.33 131.14 0 126.69 0 126.69-25.33ZM132.14-33.27L132.14-33.27Q132.14-32.63 131.88-32.06 131.61-31.5 131.18-31.06 130.74-30.63 130.16-30.38 129.59-30.13 128.94-30.13L128.94-30.13Q128.29-30.13 127.73-30.38 127.16-30.63 126.73-31.06 126.29-31.5 126.04-32.06 125.79-32.63 125.79-33.27L125.79-33.27Q125.79-33.93 126.04-34.51 126.29-35.1 126.73-35.54 127.16-35.98 127.73-36.23 128.29-36.48 128.94-36.48L128.94-36.48Q129.59-36.48 130.16-36.23 130.74-35.98 131.18-35.54 131.61-35.1 131.88-34.51 132.14-33.93 132.14-33.27ZM146.66 0.4L146.66 0.4Q143.66 0.4 142.05-1.28 140.44-2.95 140.44-6.1L140.44-6.1 140.44-21.6 137.39-21.6Q136.99-21.6 136.71-21.84 136.44-22.08 136.44-22.58L136.44-22.58 136.44-24.35 140.59-24.88 141.61-32.7Q141.66-33.08 141.94-33.31 142.21-33.55 142.64-33.55L142.64-33.55 144.89-33.55 144.89-24.83 152.14-24.83 152.14-21.6 144.89-21.6 144.89-6.4Q144.89-4.8 145.66-4.03 146.44-3.25 147.66-3.25L147.66-3.25Q148.36-3.25 148.87-3.44 149.39-3.63 149.76-3.85 150.14-4.08 150.4-4.26 150.66-4.45 150.86-4.45L150.86-4.45Q151.21-4.45 151.49-4.03L151.49-4.03 152.79-1.9Q151.64-0.83 150.01-0.21 148.39 0.4 146.66 0.4ZM162.08 0L157.63 0 157.63-36.83 162.08-36.83 162.08-21.93Q163.71-23.65 165.68-24.69 167.66-25.73 170.23-25.73L170.23-25.73Q172.31-25.73 173.9-25.04 175.48-24.35 176.55-23.09 177.61-21.83 178.16-20.05 178.71-18.28 178.71-16.13L178.71-16.13 178.71 0 174.26 0 174.26-16.13Q174.26-19 172.95-20.59 171.63-22.18 168.93-22.18L168.93-22.18Q166.96-22.18 165.25-21.23 163.53-20.28 162.08-18.65L162.08-18.65 162.08 0ZM195.46-25.73L195.46-25.73Q197.73-25.73 199.66-24.96 201.58-24.2 202.98-22.76 204.38-21.33 205.17-19.21 205.96-17.1 205.96-14.4L205.96-14.4Q205.96-13.35 205.73-13 205.51-12.65 204.88-12.65L204.88-12.65 188.03-12.65Q188.08-10.25 188.68-8.47 189.28-6.7 190.33-5.51 191.38-4.33 192.83-3.74 194.28-3.15 196.08-3.15L196.08-3.15Q197.76-3.15 198.97-3.54 200.18-3.93 201.06-4.38 201.93-4.83 202.52-5.21 203.11-5.6 203.53-5.6L203.53-5.6Q204.08-5.6 204.38-5.18L204.38-5.18 205.63-3.55Q204.81-2.55 203.66-1.81 202.51-1.07 201.19-0.6 199.88-0.13 198.48 0.11 197.08 0.35 195.71 0.35L195.71 0.35Q193.08 0.35 190.87-0.54 188.66-1.43 187.04-3.14 185.43-4.85 184.53-7.38 183.63-9.9 183.63-13.18L183.63-13.18Q183.63-15.83 184.44-18.13 185.26-20.43 186.78-22.11 188.31-23.8 190.51-24.76 192.71-25.73 195.46-25.73ZM195.56-22.45L195.56-22.45Q192.33-22.45 190.48-20.59 188.63-18.73 188.18-15.43L188.18-15.43 201.96-15.43Q201.96-16.98 201.53-18.26 201.11-19.55 200.28-20.49 199.46-21.43 198.27-21.94 197.08-22.45 195.56-22.45ZM216.08 0L211.63 0 211.63-25.33 214.18-25.33Q214.9-25.33 215.18-25.05 215.45-24.78 215.55-24.1L215.55-24.1 215.85-20.15Q217.15-22.8 219.07-24.29 220.98-25.78 223.55-25.78L223.55-25.78Q224.6-25.78 225.45-25.54 226.3-25.3 227.03-24.88L227.03-24.88 226.45-21.55Q226.28-20.93 225.68-20.93L225.68-20.93Q225.33-20.93 224.6-21.16 223.88-21.4 222.58-21.4L222.58-21.4Q220.25-21.4 218.69-20.05 217.13-18.7 216.08-16.13L216.08-16.13 216.08 0ZM249.43-16.2L249.43 0 247.45 0Q246.8 0 246.4-0.2 246-0.4 245.88-1.05L245.88-1.05 245.38-3.4Q244.38-2.5 243.43-1.79 242.48-1.07 241.43-0.59 240.38-0.1 239.19 0.15 238 0.4 236.55 0.4L236.55 0.4Q235.08 0.4 233.79-0.01 232.5-0.43 231.55-1.25 230.6-2.08 230.04-3.34 229.48-4.6 229.48-6.33L229.48-6.33Q229.48-7.83 230.3-9.21 231.13-10.6 232.96-11.68 234.8-12.75 237.78-13.44 240.75-14.13 245.05-14.23L245.05-14.23 245.05-16.2Q245.05-19.15 243.79-20.66 242.53-22.18 240.05-22.18L240.05-22.18Q238.43-22.18 237.31-21.76 236.2-21.35 235.39-20.84 234.58-20.33 233.99-19.91 233.4-19.5 232.83-19.5L232.83-19.5Q232.38-19.5 232.04-19.74 231.7-19.98 231.5-20.33L231.5-20.33 230.7-21.75Q232.8-23.78 235.23-24.78 237.65-25.78 240.6-25.78L240.6-25.78Q242.73-25.78 244.38-25.08 246.03-24.38 247.15-23.13 248.28-21.88 248.85-20.1 249.43-18.32 249.43-16.2L249.43-16.2ZM237.88-2.73L237.88-2.73Q239.05-2.73 240.03-2.96 241-3.2 241.86-3.64 242.73-4.08 243.51-4.7 244.3-5.33 245.05-6.13L245.05-6.13 245.05-11.4Q241.98-11.3 239.83-10.91 237.68-10.53 236.33-9.9 234.98-9.28 234.36-8.43 233.75-7.58 233.75-6.53L233.75-6.53Q233.75-5.53 234.08-4.8 234.4-4.08 234.95-3.61 235.5-3.15 236.25-2.94 237-2.73 237.88-2.73ZM260.62 8.58L256.17 8.58 256.17-25.33 258.82-25.33Q259.77-25.33 260.02-24.4L260.02-24.4 260.4-21.4Q262.02-23.38 264.11-24.58 266.2-25.78 268.92-25.78L268.92-25.78Q271.1-25.78 272.87-24.94 274.65-24.1 275.9-22.46 277.15-20.83 277.82-18.4 278.5-15.98 278.5-12.83L278.5-12.83Q278.5-10.03 277.75-7.61 277-5.2 275.6-3.44 274.2-1.68 272.16-0.66 270.12 0.35 267.57 0.35L267.57 0.35Q265.22 0.35 263.56-0.43 261.9-1.2 260.62-2.63L260.62-2.63 260.62 8.58ZM267.45-22.18L267.45-22.18Q265.27-22.18 263.64-21.18 262-20.18 260.62-18.35L260.62-18.35 260.62-6.1Q261.85-4.45 263.31-3.78 264.77-3.1 266.57-3.1L266.57-3.1Q270.1-3.1 272-5.63 273.9-8.15 273.9-12.83L273.9-12.83Q273.9-15.3 273.46-17.07 273.02-18.85 272.2-19.99 271.37-21.13 270.17-21.65 268.97-22.18 267.45-22.18ZM284.27-25.33L288.72-25.33 288.72 0 284.27 0 284.27-25.33ZM289.72-33.27L289.72-33.27Q289.72-32.63 289.46-32.06 289.2-31.5 288.76-31.06 288.32-30.63 287.75-30.38 287.17-30.13 286.52-30.13L286.52-30.13Q285.87-30.13 285.31-30.38 284.75-30.63 284.31-31.06 283.87-31.5 283.62-32.06 283.37-32.63 283.37-33.27L283.37-33.27Q283.37-33.93 283.62-34.51 283.87-35.1 284.31-35.54 284.75-35.98 285.31-36.23 285.87-36.48 286.52-36.48L286.52-36.48Q287.17-36.48 287.75-36.23 288.32-35.98 288.76-35.54 289.2-35.1 289.46-34.51 289.72-33.93 289.72-33.27ZM306.59-25.73L306.59-25.73Q308.87-25.73 310.79-24.96 312.72-24.2 314.12-22.76 315.52-21.33 316.31-19.21 317.09-17.1 317.09-14.4L317.09-14.4Q317.09-13.35 316.87-13 316.64-12.65 316.02-12.65L316.02-12.65 299.17-12.65Q299.22-10.25 299.82-8.47 300.42-6.7 301.47-5.51 302.52-4.33 303.97-3.74 305.42-3.15 307.22-3.15L307.22-3.15Q308.89-3.15 310.11-3.54 311.32-3.93 312.19-4.38 313.07-4.83 313.66-5.21 314.24-5.6 314.67-5.6L314.67-5.6Q315.22-5.6 315.52-5.18L315.52-5.18 316.77-3.55Q315.94-2.55 314.79-1.81 313.64-1.07 312.33-0.6 311.02-0.13 309.62 0.11 308.22 0.35 306.84 0.35L306.84 0.35Q304.22 0.35 302.01-0.54 299.79-1.43 298.18-3.14 296.57-4.85 295.67-7.38 294.77-9.9 294.77-13.18L294.77-13.18Q294.77-15.83 295.58-18.13 296.39-20.43 297.92-22.11 299.44-23.8 301.64-24.76 303.84-25.73 306.59-25.73ZM306.69-22.45L306.69-22.45Q303.47-22.45 301.62-20.59 299.77-18.73 299.32-15.43L299.32-15.43 313.09-15.43Q313.09-16.98 312.67-18.26 312.24-19.55 311.42-20.49 310.59-21.43 309.41-21.94 308.22-22.45 306.69-22.45ZM345.26-36.23L345.26-36.23Q347.24-36.23 348.86-35.59 350.49-34.95 351.68-33.9 352.86-32.85 353.55-31.46 354.24-30.08 354.34-28.58L354.34-28.58 351.56-28.03Q351.44-28 351.34-28L351.34-28Q351.01-28 350.73-28.18 350.44-28.35 350.31-28.8L350.31-28.8Q350.14-29.45 349.75-30.15 349.36-30.85 348.75-31.43 348.14-32 347.28-32.38 346.41-32.75 345.26-32.75L345.26-32.75Q344.01-32.75 343.01-32.35 342.01-31.95 341.3-31.24 340.59-30.53 340.2-29.56 339.81-28.6 339.81-27.48L339.81-27.48Q339.81-26.6 340.03-25.8 340.24-25 340.66-24.19 341.09-23.38 341.76-22.51 342.44-21.65 343.39-20.7L343.39-20.7 353.69-10.23Q354.64-11.9 355.2-13.74 355.76-15.58 355.96-17.43L355.96-17.43Q356.01-17.9 356.26-18.18 356.51-18.45 356.96-18.45L356.96-18.45 359.71-18.45Q359.66-15.58 358.79-12.8 357.91-10.03 356.26-7.6L356.26-7.6 363.76 0 359.46 0Q358.74 0 358.29-0.18 357.84-0.35 357.29-0.9L357.29-0.9 353.69-4.53Q351.34-2.25 348.28-0.93 345.21 0.4 341.54 0.4L341.54 0.4Q339.54 0.4 337.61-0.28 335.69-0.95 334.18-2.24 332.66-3.53 331.74-5.38 330.81-7.23 330.81-9.55L330.81-9.55Q330.81-11.3 331.4-12.86 331.99-14.43 333.03-15.75 334.06-17.07 335.49-18.13 336.91-19.18 338.61-19.93L338.61-19.93Q337.09-21.85 336.36-23.68 335.64-25.5 335.64-27.45L335.64-27.45Q335.64-29.28 336.3-30.88 336.96-32.48 338.21-33.66 339.46-34.85 341.25-35.54 343.04-36.23 345.26-36.23ZM335.34-9.9L335.34-9.9Q335.34-8.28 335.94-7.04 336.54-5.8 337.51-4.95 338.49-4.1 339.74-3.66 340.99-3.23 342.29-3.23L342.29-3.23Q345.09-3.23 347.31-4.25 349.54-5.28 351.24-6.98L351.24-6.98 340.66-17.65Q338.01-16.23 336.68-14.24 335.34-12.25 335.34-9.9ZM387.46-25.73L387.46-25.73Q390.23-25.73 392.47-24.8 394.71-23.88 396.27-22.18 397.83-20.48 398.67-18.06 399.51-15.65 399.51-12.68L399.51-12.68Q399.51-9.68 398.67-7.28 397.83-4.88 396.27-3.18 394.71-1.48 392.47-0.56 390.23 0.35 387.46 0.35L387.46 0.35Q384.68 0.35 382.45-0.56 380.21-1.48 378.63-3.18 377.06-4.88 376.21-7.28 375.36-9.68 375.36-12.68L375.36-12.68Q375.36-15.65 376.21-18.06 377.06-20.48 378.63-22.18 380.21-23.88 382.45-24.8 384.68-25.73 387.46-25.73ZM387.46-3.13L387.46-3.13Q391.21-3.13 393.06-5.64 394.91-8.15 394.91-12.65L394.91-12.65Q394.91-17.18 393.06-19.7 391.21-22.23 387.46-22.23L387.46-22.23Q385.56-22.23 384.16-21.58 382.76-20.93 381.82-19.7 380.88-18.48 380.42-16.69 379.96-14.9 379.96-12.65L379.96-12.65Q379.96-10.4 380.42-8.63 380.88-6.85 381.82-5.64 382.76-4.42 384.16-3.78 385.56-3.13 387.46-3.13ZM420.51-22.78L419.51-21.15Q419.21-20.6 418.58-20.6L418.58-20.6Q418.21-20.6 417.73-20.88 417.26-21.15 416.57-21.49 415.88-21.83 414.93-22.11 413.98-22.4 412.68-22.4L412.68-22.4Q411.56-22.4 410.66-22.11 409.76-21.83 409.12-21.33 408.48-20.83 408.14-20.16 407.81-19.5 407.81-18.73L407.81-18.73Q407.81-17.75 408.37-17.1 408.93-16.45 409.86-15.98 410.78-15.5 411.96-15.14 413.13-14.78 414.37-14.36 415.61-13.95 416.78-13.45 417.96-12.95 418.88-12.2 419.81-11.45 420.37-10.36 420.93-9.28 420.93-7.75L420.93-7.75Q420.93-6 420.31-4.51 419.68-3.03 418.46-1.94 417.23-0.85 415.46-0.23 413.68 0.4 411.36 0.4L411.36 0.4Q408.71 0.4 406.56-0.46 404.41-1.33 402.91-2.68L402.91-2.68 403.96-4.38Q404.16-4.7 404.43-4.88 404.71-5.05 405.16-5.05L405.16-5.05Q405.61-5.05 406.11-4.7 406.61-4.35 407.32-3.93 408.03-3.5 409.04-3.15 410.06-2.8 411.58-2.8L411.58-2.8Q412.88-2.8 413.86-3.14 414.83-3.48 415.48-4.05 416.13-4.63 416.44-5.38 416.76-6.13 416.76-6.98L416.76-6.98Q416.76-8.03 416.19-8.71 415.63-9.4 414.71-9.89 413.78-10.38 412.59-10.74 411.41-11.1 410.17-11.5 408.93-11.9 407.74-12.41 406.56-12.93 405.63-13.7 404.71-14.48 404.14-15.61 403.58-16.75 403.58-18.38L403.58-18.38Q403.58-19.83 404.18-21.16 404.78-22.5 405.93-23.51 407.08-24.53 408.76-25.13 410.43-25.73 412.58-25.73L412.58-25.73Q415.08-25.73 417.07-24.94 419.06-24.15 420.51-22.78L420.51-22.78ZM434.38 0.4L434.38 0.4Q431.38 0.4 429.77-1.28 428.15-2.95 428.15-6.1L428.15-6.1 428.15-21.6 425.1-21.6Q424.7-21.6 424.43-21.84 424.15-22.08 424.15-22.58L424.15-22.58 424.15-24.35 428.3-24.88 429.33-32.7Q429.38-33.08 429.65-33.31 429.93-33.55 430.35-33.55L430.35-33.55 432.6-33.55 432.6-24.83 439.85-24.83 439.85-21.6 432.6-21.6 432.6-6.4Q432.6-4.8 433.38-4.03 434.15-3.25 435.38-3.25L435.38-3.25Q436.08-3.25 436.59-3.44 437.1-3.63 437.48-3.85 437.85-4.08 438.12-4.26 438.38-4.45 438.58-4.45L438.58-4.45Q438.93-4.45 439.2-4.03L439.2-4.03 440.5-1.9Q439.35-0.83 437.73-0.21 436.1 0.4 434.38 0.4ZM455.38-25.73L455.38-25.73Q457.65-25.73 459.58-24.96 461.5-24.2 462.9-22.76 464.3-21.33 465.09-19.21 465.88-17.1 465.88-14.4L465.88-14.4Q465.88-13.35 465.65-13 465.43-12.65 464.8-12.65L464.8-12.65 447.95-12.65Q448-10.25 448.6-8.47 449.2-6.7 450.25-5.51 451.3-4.33 452.75-3.74 454.2-3.15 456-3.15L456-3.15Q457.68-3.15 458.89-3.54 460.1-3.93 460.98-4.38 461.85-4.83 462.44-5.21 463.03-5.6 463.45-5.6L463.45-5.6Q464-5.6 464.3-5.18L464.3-5.18 465.55-3.55Q464.73-2.55 463.58-1.81 462.43-1.07 461.11-0.6 459.8-0.13 458.4 0.11 457 0.35 455.63 0.35L455.63 0.35Q453 0.35 450.79-0.54 448.58-1.43 446.96-3.14 445.35-4.85 444.45-7.38 443.55-9.9 443.55-13.18L443.55-13.18Q443.55-15.83 444.36-18.13 445.18-20.43 446.7-22.11 448.23-23.8 450.43-24.76 452.63-25.73 455.38-25.73ZM455.48-22.45L455.48-22.45Q452.25-22.45 450.4-20.59 448.55-18.73 448.1-15.43L448.1-15.43 461.88-15.43Q461.88-16.98 461.45-18.26 461.03-19.55 460.2-20.49 459.38-21.43 458.19-21.94 457-22.45 455.48-22.45ZM481.8-25.73L481.8-25.73Q484.57-25.73 486.81-24.8 489.05-23.88 490.61-22.18 492.17-20.48 493.01-18.06 493.85-15.65 493.85-12.68L493.85-12.68Q493.85-9.68 493.01-7.28 492.17-4.88 490.61-3.18 489.05-1.48 486.81-0.56 484.57 0.35 481.8 0.35L481.8 0.35Q479.02 0.35 476.79-0.56 474.55-1.48 472.97-3.18 471.4-4.88 470.55-7.28 469.7-9.68 469.7-12.68L469.7-12.68Q469.7-15.65 470.55-18.06 471.4-20.48 472.97-22.18 474.55-23.88 476.79-24.8 479.02-25.73 481.8-25.73ZM481.8-3.13L481.8-3.13Q485.55-3.13 487.4-5.64 489.25-8.15 489.25-12.65L489.25-12.65Q489.25-17.18 487.4-19.7 485.55-22.23 481.8-22.23L481.8-22.23Q479.9-22.23 478.5-21.58 477.1-20.93 476.16-19.7 475.22-18.48 474.76-16.69 474.3-14.9 474.3-12.65L474.3-12.65Q474.3-10.4 474.76-8.63 475.22-6.85 476.16-5.64 477.1-4.42 478.5-3.78 479.9-3.13 481.8-3.13ZM503.8 8.58L499.35 8.58 499.35-25.33 502-25.33Q502.95-25.33 503.2-24.4L503.2-24.4 503.57-21.4Q505.2-23.38 507.28-24.58 509.37-25.78 512.1-25.78L512.1-25.78Q514.27-25.78 516.05-24.94 517.82-24.1 519.07-22.46 520.32-20.83 521-18.4 521.67-15.98 521.67-12.83L521.67-12.83Q521.67-10.03 520.92-7.61 520.17-5.2 518.77-3.44 517.37-1.68 515.33-0.66 513.3 0.35 510.75 0.35L510.75 0.35Q508.4 0.35 506.73-0.43 505.07-1.2 503.8-2.63L503.8-2.63 503.8 8.58ZM510.62-22.18L510.62-22.18Q508.45-22.18 506.81-21.18 505.17-20.18 503.8-18.35L503.8-18.35 503.8-6.1Q505.02-4.45 506.48-3.78 507.95-3.1 509.75-3.1L509.75-3.1Q513.27-3.1 515.17-5.63 517.07-8.15 517.07-12.83L517.07-12.83Q517.07-15.3 516.63-17.07 516.2-18.85 515.37-19.99 514.55-21.13 513.35-21.65 512.15-22.18 510.62-22.18ZM545.54-16.2L545.54 0 543.57 0Q542.92 0 542.52-0.2 542.12-0.4 541.99-1.05L541.99-1.05 541.49-3.4Q540.49-2.5 539.54-1.79 538.59-1.07 537.54-0.59 536.49-0.1 535.31 0.15 534.12 0.4 532.67 0.4L532.67 0.4Q531.19 0.4 529.9-0.01 528.62-0.43 527.67-1.25 526.72-2.08 526.15-3.34 525.59-4.6 525.59-6.33L525.59-6.33Q525.59-7.83 526.42-9.21 527.24-10.6 529.08-11.68 530.92-12.75 533.89-13.44 536.87-14.13 541.17-14.23L541.17-14.23 541.17-16.2Q541.17-19.15 539.9-20.66 538.64-22.18 536.17-22.18L536.17-22.18Q534.54-22.18 533.43-21.76 532.32-21.35 531.5-20.84 530.69-20.33 530.11-19.91 529.52-19.5 528.94-19.5L528.94-19.5Q528.49-19.5 528.15-19.74 527.82-19.98 527.62-20.33L527.62-20.33 526.82-21.75Q528.92-23.78 531.34-24.78 533.77-25.78 536.72-25.78L536.72-25.78Q538.84-25.78 540.49-25.08 542.14-24.38 543.27-23.13 544.39-21.88 544.97-20.1 545.54-18.32 545.54-16.2L545.54-16.2ZM533.99-2.73L533.99-2.73Q535.17-2.73 536.14-2.96 537.12-3.2 537.98-3.64 538.84-4.08 539.63-4.7 540.42-5.33 541.17-6.13L541.17-6.13 541.17-11.4Q538.09-11.3 535.94-10.91 533.79-10.53 532.44-9.9 531.09-9.28 530.48-8.43 529.87-7.58 529.87-6.53L529.87-6.53Q529.87-5.53 530.19-4.8 530.52-4.08 531.07-3.61 531.62-3.15 532.37-2.94 533.12-2.73 533.99-2.73ZM559.97 0.4L559.97 0.4Q556.97 0.4 555.35-1.28 553.74-2.95 553.74-6.1L553.74-6.1 553.74-21.6 550.69-21.6Q550.29-21.6 550.01-21.84 549.74-22.08 549.74-22.58L549.74-22.58 549.74-24.35 553.89-24.88 554.91-32.7Q554.97-33.08 555.24-33.31 555.51-33.55 555.94-33.55L555.94-33.55 558.19-33.55 558.19-24.83 565.44-24.83 565.44-21.6 558.19-21.6 558.19-6.4Q558.19-4.8 558.97-4.03 559.74-3.25 560.97-3.25L560.97-3.25Q561.66-3.25 562.18-3.44 562.69-3.63 563.06-3.85 563.44-4.08 563.7-4.26 563.97-4.45 564.16-4.45L564.16-4.45Q564.51-4.45 564.79-4.03L564.79-4.03 566.09-1.9Q564.94-0.83 563.31-0.21 561.69 0.4 559.97 0.4ZM575.39 0L570.94 0 570.94-36.83 575.39-36.83 575.39-21.93Q577.01-23.65 578.99-24.69 580.96-25.73 583.54-25.73L583.54-25.73Q585.61-25.73 587.2-25.04 588.79-24.35 589.85-23.09 590.91-21.83 591.46-20.05 592.01-18.28 592.01-16.13L592.01-16.13 592.01 0 587.56 0 587.56-16.13Q587.56-19 586.25-20.59 584.94-22.18 582.24-22.18L582.24-22.18Q580.26-22.18 578.55-21.23 576.84-20.28 575.39-18.65L575.39-18.65 575.39 0ZM599.23-25.33L603.68-25.33 603.68 0 599.23 0 599.23-25.33ZM604.68-33.27L604.68-33.27Q604.68-32.63 604.42-32.06 604.16-31.5 603.72-31.06 603.28-30.63 602.71-30.38 602.13-30.13 601.48-30.13L601.48-30.13Q600.83-30.13 600.27-30.38 599.71-30.63 599.27-31.06 598.83-31.5 598.58-32.06 598.33-32.63 598.33-33.27L598.33-33.27Q598.33-33.93 598.58-34.51 598.83-35.1 599.27-35.54 599.71-35.98 600.27-36.23 600.83-36.48 601.48-36.48L601.48-36.48Q602.13-36.48 602.71-36.23 603.28-35.98 603.72-35.54 604.16-35.1 604.42-34.51 604.68-33.93 604.68-33.27ZM621.56-25.73L621.56-25.73Q623.83-25.73 625.76-24.96 627.68-24.2 629.08-22.76 630.48-21.33 631.27-19.21 632.06-17.1 632.06-14.4L632.06-14.4Q632.06-13.35 631.83-13 631.61-12.65 630.98-12.65L630.98-12.65 614.13-12.65Q614.18-10.25 614.78-8.47 615.38-6.7 616.43-5.51 617.48-4.33 618.93-3.74 620.38-3.15 622.18-3.15L622.18-3.15Q623.86-3.15 625.07-3.54 626.28-3.93 627.16-4.38 628.03-4.83 628.62-5.21 629.21-5.6 629.63-5.6L629.63-5.6Q630.18-5.6 630.48-5.18L630.48-5.18 631.73-3.55Q630.91-2.55 629.76-1.81 628.61-1.07 627.29-0.6 625.98-0.13 624.58 0.11 623.18 0.35 621.81 0.35L621.81 0.35Q619.18 0.35 616.97-0.54 614.76-1.43 613.14-3.14 611.53-4.85 610.63-7.38 609.73-9.9 609.73-13.18L609.73-13.18Q609.73-15.83 610.54-18.13 611.36-20.43 612.88-22.11 614.41-23.8 616.61-24.76 618.81-25.73 621.56-25.73ZM621.66-22.45L621.66-22.45Q618.43-22.45 616.58-20.59 614.73-18.73 614.28-15.43L614.28-15.43 628.06-15.43Q628.06-16.98 627.63-18.26 627.21-19.55 626.38-20.49 625.56-21.43 624.37-21.94 623.18-22.45 621.66-22.45Z" opacity="1" transform="matrix(1,0,0,1,0,0)" fill="#f6f6f6" class="slogan-text-1" data-fill-palette-color="secondary" id="text-1"></path></svg></g></svg></g></svg></g></svg></g><g></g></svg></g></svg></g></svg></g><defs></defs></svg><rect width="320" height="360" fill="none" stroke="none" visibility="hidden"></rect></g></svg></g></svg>